<svg width="34" height="34" viewBox="0 0 34 34" fill="none" xmlns="http://www.w3.org/2000/svg">
<path opacity="0.25" d="M4.25 5.66699C4.25 3.31978 6.15279 1.41699 8.5 1.41699H22.3229C23.4501 1.41699 24.5311 1.86476 25.3281 2.66179L28.5052 5.83886C29.3022 6.63589 29.75 7.7169 29.75 8.84407V28.3337C29.75 30.6809 27.8472 32.5837 25.5 32.5837H8.5C6.15279 32.5837 4.25 30.6809 4.25 28.3337V5.66699Z" fill="#A1A5B7"/>
<path d="M21.25 2.68038C21.25 1.98263 21.8156 1.41699 22.5134 1.41699C23.5186 1.41699 24.4827 1.81631 25.1934 2.52711L28.6399 5.97354C29.3507 6.68434 29.75 7.64838 29.75 8.6536C29.75 9.35135 29.1844 9.91699 28.4866 9.91699H22.6667C21.8843 9.91699 21.25 9.28273 21.25 8.50032V2.68038Z" fill="#A1A5B7"/>
<path d="M18.4173 15.5827C18.4173 14.8003 17.7831 14.166 17.0007 14.166C16.2182 14.166 15.584 14.8003 15.584 15.5827V18.416H12.7507C11.9682 18.416 11.334 19.0503 11.334 19.8327C11.334 20.6151 11.9682 21.2493 12.7507 21.2493H15.584V24.0827C15.584 24.8651 16.2182 25.4993 17.0007 25.4993C17.7831 25.4993 18.4173 24.8651 18.4173 24.0827V21.2493H21.2507C22.0331 21.2493 22.6673 20.6151 22.6673 19.8327C22.6673 19.0503 22.0331 18.416 21.2507 18.416H18.4173V15.5827Z" fill="#A1A5B7"/>
</svg>
